<svg version="1.1" xmlns="http://www.w3.org/2000/svg" viewBox="0 0 1108.0090768018938 619.0400890575407" width="1108.0090768018938" height="619.0400890575407" filter="invert(93%) hue-rotate(180deg)">
  <!-- svg-source:excalidraw -->
  
  <defs>
    <style class="style-fonts">
      @font-face {
        font-family: "Virgil";
        src: url("https://excalidraw.com/Virgil.woff2");
      }
      @font-face {
        font-family: "Cascadia";
        src: url("https://excalidraw.com/Cascadia.woff2");
      }
      @font-face {
        font-family: "Assistant";
        src: url("https://excalidraw.com/Assistant-Regular.woff2");
      }
    </style>
    
  </defs>
  <g stroke-linecap="round" transform="translate(410.5191708509544 10) rotate(0 146.48007457614426 61.49184869024087)"><path d="M30.75 0 C117.54 -1.53, 204 -2.37, 262.21 0 M30.75 0 C83.8 2.25, 137.64 1.01, 262.21 0 M262.21 0 C281.72 -1.65, 293.54 10.97, 292.96 30.75 M262.21 0 C283.76 -1.78, 294.38 8.93, 292.96 30.75 M292.96 30.75 C292.26 46.08, 293.76 58.89, 292.96 92.24 M292.96 30.75 C293.24 47.23, 291.72 65.7, 292.96 92.24 M292.96 92.24 C294.16 113.02, 284.08 123.17, 262.21 122.98 M292.96 92.24 C292.03 113.56, 281.07 123.63, 262.21 122.98 M262.21 122.98 C201.1 122.88, 139.64 124.45, 30.75 122.98 M262.21 122.98 C180.59 122.73, 98.77 123.01, 30.75 122.98 M30.75 122.98 C11.73 124.74, 0.7 111.52, 0 92.24 M30.75 122.98 C11.84 121.64, -2.26 112.68, 0 92.24 M0 92.24 C0.81 69.57, -1.22 51.01, 0 30.75 M0 92.24 C0.94 77.68, 0.94 63.32, 0 30.75 M0 30.75 C1.17 10.38, 11.8 -1.76, 30.75 0 M0 30.75 C0.07 8.97, 12.35 -0.56, 30.75 0" stroke="#1e1e1e" stroke-width="2" fill="none"></path></g><g transform="translate(510.8825805406241 48.991848690240886) rotate(0 46.11666488647461 22.499999999999986)"><text x="46.11666488647461" y="31.536" font-family="Virgil, Segoe UI Emoji" font-size="36px" fill="#1e1e1e" text-anchor="middle" style="white-space: pre;" direction="ltr" dominant-baseline="alphabetic">World</text></g><g stroke-linecap="round" transform="translate(418.06220963038754 508.04008905754074) rotate(0 141.5 50.5)"><path d="M25.25 0 C114.61 -1.1, 202.49 0.15, 257.75 0 M25.25 0 C109.83 -0.95, 195.18 -0.9, 257.75 0 M257.75 0 C273.25 -1.06, 282.27 6.47, 283 25.25 M257.75 0 C275.92 -1.4, 284.78 6.57, 283 25.25 M283 25.25 C281.14 41, 283.66 56.1, 283 75.75 M283 25.25 C281.72 35.68, 282.42 46.8, 283 75.75 M283 75.75 C284.26 92.73, 274.46 102.46, 257.75 101 M283 75.75 C284.93 91.81, 273.71 102.86, 257.75 101 M257.75 101 C195.51 99.4, 136 99.95, 25.25 101 M257.75 101 C185.22 100.11, 114.2 99.84, 25.25 101 M25.25 101 C7.48 100.31, -1.85 91.9, 0 75.75 M25.25 101 C7.78 100.61, -1.27 91.25, 0 75.75 M0 75.75 C-0.69 65.59, 0.79 51.97, 0 25.25 M0 75.75 C0.66 55.39, 0.22 37.34, 0 25.25 M0 25.25 C1.04 10.17, 7.86 -1.45, 25.25 0 M0 25.25 C0.24 8.81, 6.84 0.31, 25.25 0" stroke="#1e1e1e" stroke-width="2" fill="none"></path></g><g transform="translate(440.33721115626645 546.0400890575407) rotate(0 119.2249984741211 12.5)"><text x="119.2249984741211" y="17.52" font-family="Virgil, Segoe UI Emoji" font-size="20px" fill="#1e1e1e" text-anchor="middle" style="white-space: pre;" direction="ltr" dominant-baseline="alphabetic">IComponentContainer&lt;T&gt;</text></g><g transform="translate(533.8170433447051 403.5798743845071) rotate(0 3.7916667461395264 17.5)"><text x="0" y="24.528" font-family="Virgil, Segoe UI Emoji" font-size="28px" fill="#1e1e1e" text-anchor="start" style="white-space: pre;" direction="ltr" dominant-baseline="alphabetic">1</text></g><g transform="translate(567.6638522166438 465.6022182031588) rotate(0 24.524999618530273 17.5)"><text x="0" y="24.528" font-family="Virgil, Segoe UI Emoji" font-size="28px" fill="#1e1e1e" text-anchor="start" style="white-space: pre;" direction="ltr" dominant-baseline="alphabetic">0..*</text></g><g stroke-linecap="round" transform="translate(416.7280151220359 289.62758702452606) rotate(0 141.5 50.5)"><path d="M25.25 0 C114.72 0.64, 203.03 -1.31, 257.75 0 M25.25 0 C75.57 -0.48, 126.06 -1.55, 257.75 0 M257.75 0 C272.63 -0.61, 283.55 8.37, 283 25.25 M257.75 0 C273.75 -1.76, 283.4 7.69, 283 25.25 M283 25.25 C283.96 46, 283.85 62.93, 283 75.75 M283 25.25 C282.52 44.32, 281.84 64.1, 283 75.75 M283 75.75 C282.84 94.09, 275.84 102.97, 257.75 101 M283 75.75 C282.35 90.31, 273.59 102.69, 257.75 101 M257.75 101 C176.88 103.33, 93.74 102.33, 25.25 101 M257.75 101 C189.83 100.21, 122.43 100.38, 25.25 101 M25.25 101 C9.08 102.79, -0.66 94.44, 0 75.75 M25.25 101 C8.65 101.33, -1.58 92.88, 0 75.75 M0 75.75 C0.43 55.07, 1.39 35.18, 0 25.25 M0 75.75 C-0.2 55.71, 0.53 37.6, 0 25.25 M0 25.25 C-1.53 7.37, 6.8 -1.28, 25.25 0 M0 25.25 C-1.42 9.28, 10.29 -0.48, 25.25 0" stroke="#1e1e1e" stroke-width="2" fill="none"></path></g><g transform="translate(432.64467924557107 322.62758702452606) rotate(0 125.58333587646484 17.5)"><text x="125.58333587646484" y="24.528" font-family="Virgil, Segoe UI Emoji" font-size="28px" fill="#1e1e1e" text-anchor="middle" style="white-space: pre;" direction="ltr" dominant-baseline="alphabetic">ComponentManager</text></g><g stroke-linecap="round" transform="translate(10 288.130186040617) rotate(0 141.5 50.5)"><path d="M25.25 0 C74.1 -0.14, 125.18 0.56, 257.75 0 M25.25 0 C77.41 -0.17, 131.02 -1, 257.75 0 M257.75 0 C274.3 0, 281.52 6.96, 283 25.25 M257.75 0 C273.67 0.5, 281.6 9.84, 283 25.25 M283 25.25 C283.09 34.64, 283.22 47.7, 283 75.75 M283 25.25 C283.23 37.17, 281.93 51.65, 283 75.75 M283 75.75 C281.5 93.23, 275.18 99.39, 257.75 101 M283 75.75 C283.87 92, 272.96 99.74, 257.75 101 M257.75 101 C168.5 102.65, 81.1 101.25, 25.25 101 M257.75 101 C180.82 102.8, 104.05 102.88, 25.25 101 M25.25 101 C8.35 99.39, -0.44 93.74, 0 75.75 M25.25 101 C6.44 101.51, -1.91 90.92, 0 75.75 M0 75.75 C-0.88 55.13, 0.8 36.71, 0 25.25 M0 75.75 C0.49 60.94, -0.45 46.88, 0 25.25 M0 25.25 C0.6 7.74, 10.01 1.35, 25.25 0 M0 25.25 C-0.46 6.3, 7.84 -0.65, 25.25 0" stroke="#1e1e1e" stroke-width="2" fill="none"></path></g><g transform="translate(53.43333435058594 321.130186040617) rotate(0 98.06666564941406 17.5)"><text x="98.06666564941406" y="24.528" font-family="Virgil, Segoe UI Emoji" font-size="28px" fill="#1e1e1e" text-anchor="middle" style="white-space: pre;" direction="ltr" dominant-baseline="alphabetic">EntityManager</text></g><g stroke-linecap="round"><g transform="translate(556.1716220973185 392.0053723925463) rotate(0 0 57.471242416383916)"><path d="M0 0 C0 19.16, 0 95.79, 0 114.94 M0 0 C0 19.16, 0 95.79, 0 114.94" stroke="#1e1e1e" stroke-width="2" fill="none"></path></g></g><mask></mask><g stroke-linecap="round" transform="translate(815.0090768018938 282.9973364737898) rotate(0 141.5 50.50000000000003)"><path d="M25.25 0 C80.1 -0.95, 134.58 0.72, 257.75 0 M25.25 0 C73.66 0.84, 123.63 1.27, 257.75 0 M257.75 0 C273.73 0.84, 284.71 7.06, 283 25.25 M257.75 0 C275.33 0.85, 284.26 9.06, 283 25.25 M283 25.25 C285.16 41.44, 284 56, 283 75.75 M283 25.25 C282.64 40.61, 282.69 55.38, 283 75.75 M283 75.75 C284.17 91.08, 275.95 101.98, 257.75 101 M283 75.75 C282.4 93.03, 273.74 102.78, 257.75 101 M257.75 101 C182.88 99.6, 109.31 100.9, 25.25 101 M257.75 101 C209.01 98.82, 161.32 99.88, 25.25 101 M25.25 101 C7.55 100.9, -1.7 92.36, 0 75.75 M25.25 101 C10.51 99.1, 0.05 92.37, 0 75.75 M0 75.75 C-0.85 63.46, -0.37 48.6, 0 25.25 M0 75.75 C0.38 58.72, 1.06 42.71, 0 25.25 M0 25.25 C-0.02 7.22, 9.52 1.15, 25.25 0 M0 25.25 C2.13 9.68, 7.55 -2.06, 25.25 0" stroke="#1e1e1e" stroke-width="2" fill="none"></path></g><g transform="translate(852.7674081007219 315.9973364737898) rotate(0 103.74166870117188 17.50000000000003)"><text x="103.74166870117188" y="24.528" font-family="Virgil, Segoe UI Emoji" font-size="28px" fill="#1e1e1e" text-anchor="middle" style="white-space: pre;" direction="ltr" dominant-baseline="alphabetic">SystemManager</text></g><g stroke-linecap="round"><g transform="translate(558.986065037702 133.25949634722477) rotate(0 0 77.90509276061195)"><path d="M0 0 C0 25.97, 0 129.84, 0 155.81 M0 0 C0 25.97, 0 129.84, 0 155.81" stroke="#1e1e1e" stroke-width="2" fill="none"></path></g></g><mask></mask><g stroke-linecap="round"><g transform="translate(961.4957109675304 204.08230794778112) rotate(0 -408.706641944877 0)"><path d="M0 0 C-136.24 0, -681.18 0, -817.41 0 M0 0 C-136.24 0, -681.18 0, -817.41 0" stroke="#1e1e1e" stroke-width="2" fill="none"></path></g></g><mask></mask><g stroke-linecap="round"><g transform="translate(961.7262349818923 204.0409393380804) rotate(0 0 40.01124268994664)"><path d="M0 0 C0 13.34, 0 66.69, 0 80.02 M0 0 C0 13.34, 0 66.69, 0 80.02" stroke="#1e1e1e" stroke-width="2" fill="none"></path></g></g><mask></mask><g stroke-linecap="round"><g transform="translate(143.54795724715632 203.99783170074156) rotate(0 0 41.8897581450866)"><path d="M0 0 C0 13.96, 0 69.82, 0 83.78 M0 0 C0 13.96, 0 69.82, 0 83.78" stroke="#1e1e1e" stroke-width="2" fill="none"></path></g></g><mask></mask></svg>